<?xml version="1.0" standalone="no"?>
<!DOCTYPE svg PUBLIC "-//W3C//DTD SVG 20010904//EN"
 "http://www.w3.org/TR/2001/REC-SVG-20010904/DTD/svg10.dtd">
<svg version="1.0" xmlns="http://www.w3.org/2000/svg"
 width="1076.000000pt" height="1280.000000pt" viewBox="0 0 1076.000000 1280.000000"
 preserveAspectRatio="xMidYMid meet">
<g transform="translate(0.000000,1280.000000) scale(0.100000,-0.100000)"
fill="#000000" stroke="none">
<path d="M3990 12789 c-269 -31 -541 -131 -765 -282 -64 -43 -147 -118 -290
-262 -205 -206 -246 -241 -350 -292 -114 -57 -215 -83 -492 -128 -201 -33
-275 -50 -369 -86 -269 -104 -412 -315 -446 -660 -15 -151 0 -331 47 -587 47
-259 54 -302 66 -449 29 -368 -69 -629 -312 -826 -37 -30 -147 -108 -245 -175
-99 -66 -212 -149 -252 -183 -253 -215 -441 -561 -525 -964 -42 -197 -52 -313
-52 -575 1 -308 22 -475 87 -680 115 -359 314 -583 568 -636 194 -41 413 39
586 214 144 146 240 340 329 672 16 58 31 109 35 113 4 4 10 -72 13 -170 13
-373 73 -649 187 -860 89 -165 190 -265 394 -393 179 -111 236 -158 285 -231
65 -97 87 -201 59 -279 -6 -18 -40 -81 -76 -139 -440 -724 -619 -1626 -492
-2482 36 -237 99 -486 182 -708 21 -57 38 -107 38 -111 0 -5 -34 -16 -76 -25
-110 -24 -305 -91 -413 -141 -397 -185 -641 -513 -641 -864 0 -173 55 -305
179 -430 127 -130 251 -177 426 -166 626 41 1399 200 2052 420 270 92 388 156
483 263 103 117 111 194 38 364 -330 767 -298 1714 83 2455 79 153 140 244
215 319 224 224 527 183 820 -110 49 -49 117 -128 150 -175 498 -705 684
-1591 513 -2435 -36 -173 -34 -219 12 -315 63 -134 206 -236 389 -279 125 -29
173 -33 1293 -112 1133 -80 1096 -80 1220 -21 174 82 306 243 353 432 26 102
16 261 -23 372 -153 439 -615 687 -1191 639 -81 -7 -160 -15 -175 -18 -27 -5
-28 -4 -20 23 14 56 7 620 -11 794 -58 579 -191 1137 -460 1945 -142 425 -257
743 -306 850 -89 193 -216 342 -346 406 l-67 33 57 13 c161 36 322 163 422
330 158 265 179 580 70 1068 l-33 147 41 -6 c129 -21 211 -27 290 -21 323 23
631 168 900 425 271 259 483 654 660 1230 45 148 118 412 114 415 -2 2 -149
-268 -328 -598 -486 -899 -509 -937 -650 -1070 -123 -116 -236 -172 -407 -202
-208 -36 -466 -4 -848 106 -301 87 -424 183 -466 366 -7 32 -8 126 -4 289 9
283 5 306 -76 430 -116 176 -168 332 -177 526 -5 127 7 230 40 338 26 85 72
178 106 213 61 65 165 89 196 46 14 -20 13 -26 -9 -69 -95 -187 -6 -451 180
-536 141 -65 327 -29 445 86 26 25 63 78 84 117 34 65 44 75 92 99 47 23 64
26 117 22 117 -10 206 -67 254 -166 26 -53 28 -65 28 -177 -1 -112 -3 -127
-38 -225 -21 -58 -40 -114 -44 -124 -5 -16 7 -12 70 22 42 23 78 42 80 42 3 0
-2 -19 -10 -42 -19 -55 -28 -156 -15 -188 8 -23 14 -16 65 90 76 156 98 242
104 413 l6 137 29 -39 c35 -49 131 -114 195 -134 61 -19 131 -29 136 -20 3 5
-2 30 -11 57 -21 66 -98 148 -170 182 -116 54 -147 106 -147 244 0 88 2 99 32
151 l32 57 -23 21 c-12 11 -25 21 -29 21 -4 0 -39 -27 -78 -60 -92 -77 -158
-102 -264 -102 -150 0 -274 59 -405 191 -97 98 -137 168 -175 304 -42 153 -50
293 -35 607 7 153 10 333 7 401 -19 368 -152 627 -381 740 -130 63 -188 70
-571 67 -319 -3 -333 -2 -409 20 -133 39 -239 101 -423 249 -200 162 -284 219
-418 283 -271 130 -602 184 -915 149z m503 -159 c208 -44 403 -124 574 -235
200 -130 375 -304 497 -493 49 -75 156 -288 156 -309 0 -28 -53 -13 -84 23
-97 112 -137 150 -202 193 -161 108 -461 199 -814 247 -168 23 -526 23 -703 0
-420 -54 -817 -190 -1154 -394 -46 -28 -83 -48 -83 -45 0 3 20 48 44 99 235
496 734 860 1281 933 113 16 375 5 488 -19z m182 -694 c406 -61 688 -179 867
-362 80 -82 93 -101 78 -119 -28 -34 -89 -16 -223 64 -308 186 -725 274 -1140
242 -330 -26 -641 -97 -1111 -252 -307 -101 -415 -168 -478 -297 l-33 -67 0
-250 c0 -222 -2 -254 -18 -283 -10 -18 -29 -38 -43 -44 -43 -20 -74 14 -111
121 -49 139 -66 239 -61 343 5 77 11 100 42 163 61 123 229 265 492 414 315
179 693 297 1089 341 118 13 532 4 650 -14z m-157 -348 c19 -19 15 -31 -48
-138 -141 -237 -303 -539 -481 -895 -105 -208 -201 -394 -214 -411 -29 -38
-83 -79 -93 -70 -9 10 64 226 119 350 27 61 46 112 44 115 -10 9 -76 1 -102
-13 -61 -31 -92 -91 -103 -198 -7 -73 -17 -97 -42 -98 -3 0 -18 14 -33 32 -24
29 -27 38 -21 82 3 33 20 76 49 125 70 121 84 186 51 236 -22 34 -50 31 -74
-7 -21 -34 -104 -279 -115 -342 -10 -52 -21 -52 -48 -4 -68 119 -61 140 237
731 262 520 269 531 312 496 13 -11 15 -27 12 -80 -6 -83 -38 -154 -137 -304
-40 -60 -83 -130 -96 -155 -31 -60 -57 -150 -44 -150 23 0 102 65 147 120 27
33 86 131 132 218 81 151 166 288 196 313 12 10 19 8 36 -9 34 -34 26 -70 -45
-198 -107 -192 -169 -347 -213 -536 -9 -43 -14 -81 -11 -85 11 -10 76 56 98
99 11 21 40 86 65 145 93 219 273 547 336 615 27 29 65 37 86 16z m-841 -68
c65 -39 67 -34 -88 -327 -205 -387 -235 -456 -279 -647 -11 -49 -29 -108 -39
-130 -21 -46 -74 -101 -89 -92 -20 12 -23 65 -8 124 22 84 20 137 -5 171 -28
38 -28 112 -1 173 12 28 55 80 114 139 96 96 129 144 222 325 25 50 62 109 81
131 65 76 32 72 -261 -32 -280 -101 -300 -114 -348 -245 -59 -161 -71 -185
-110 -226 -36 -37 -89 -65 -101 -52 -5 5 116 352 138 394 25 48 66 93 101 111
17 9 148 58 291 109 280 100 325 109 382 74z m1139 6 c3 -8 -4 -61 -15 -117
-12 -56 -20 -104 -18 -105 1 -2 27 17 58 40 90 72 231 136 334 151 53 8 108
-9 103 -33 -5 -26 -54 -54 -97 -56 -38 -1 -40 -2 -33 -26 13 -47 4 -135 -21
-200 -51 -135 -283 -535 -481 -830 -123 -183 -137 -200 -167 -200 -19 0 -21 4
-15 40 11 68 52 147 155 294 165 237 338 526 406 680 29 66 34 146 10 146 -29
0 -60 -47 -104 -159 -24 -61 -78 -168 -120 -238 -150 -251 -466 -735 -469
-718 -5 25 36 152 75 229 19 38 131 221 249 407 118 185 214 342 214 348 0 23
-56 11 -87 -19 -46 -45 -287 -429 -493 -785 -107 -186 -136 -228 -182 -261
l-33 -25 -7 27 c-14 54 12 121 112 288 133 221 265 485 250 500 -8 8 -21 5
-48 -9 -32 -17 -60 -60 -216 -327 -149 -254 -182 -305 -194 -295 -10 8 -13 25
-10 57 4 35 64 156 279 560 278 521 299 554 342 537 13 -5 11 -16 -18 -75 -35
-71 -69 -182 -81 -264 -5 -40 -3 -49 11 -54 35 -14 63 37 145 265 44 123 83
228 86 232 9 15 74 10 80 -5z m592 -172 c29 -20 31 -83 3 -108 -35 -32 -101 6
-101 58 0 24 38 66 60 66 8 0 26 -7 38 -16z m-2603 -163 c12 -38 -42 -121 -77
-121 -16 0 -9 108 8 124 22 22 61 20 69 -3z m2845 -27 c13 -34 5 -63 -46 -164
-23 -47 -52 -109 -63 -138 -50 -127 -110 -207 -173 -231 -16 -6 -28 -9 -28 -7
0 2 16 52 35 112 40 122 159 374 200 422 33 39 62 41 75 6z m-212 -6 c18 -18
15 -48 -9 -92 -59 -110 -434 -698 -456 -716 -14 -11 -33 -20 -41 -20 -20 0
-52 29 -52 48 0 13 235 379 442 690 68 101 89 117 116 90z m-213 -108 c13 -21
-80 -160 -107 -160 -18 0 -3 95 21 134 18 28 29 36 51 36 16 0 32 -4 35 -10z
m-2384 -500 c115 -153 277 -319 383 -390 126 -85 296 -156 451 -190 182 -41
473 -50 723 -25 635 65 1001 216 1224 504 35 46 58 37 58 -22 0 -35 -9 -57
-49 -117 -256 -390 -721 -644 -1219 -667 -465 -21 -959 157 -1360 491 -148
123 -255 261 -296 381 -20 58 -34 185 -19 170 5 -5 52 -66 104 -135z m508
-264 c56 -29 71 -92 26 -110 -34 -13 -85 37 -85 85 0 42 14 48 59 25z m1586
-90 c8 -25 6 -31 -19 -53 -20 -17 -38 -23 -60 -21 -27 3 -31 6 -29 32 5 69 87
101 108 42z m655 -206 c0 -32 -190 -862 -205 -893 -26 -55 -73 -96 -130 -112
-27 -8 -147 -21 -265 -30 -118 -8 -460 -33 -760 -55 -1124 -81 -1016 -75
-1045 -56 -14 9 -30 28 -35 41 -8 21 -52 1026 -45 1033 1 1 38 -20 82 -47 181
-112 454 -234 651 -292 196 -57 282 -70 497 -76 174 -5 216 -2 324 16 296 50
547 173 752 367 81 77 133 113 167 114 6 0 12 -4 12 -10z m-3535 -361 c54 -15
127 -91 149 -155 17 -50 136 -753 136 -805 0 -15 -18 -63 -39 -106 -52 -102
-73 -187 -74 -298 0 -112 14 -174 68 -295 24 -52 46 -113 49 -135 10 -60 -9
-141 -56 -235 -33 -68 -58 -102 -127 -170 -107 -106 -169 -141 -263 -148 -117
-8 -203 43 -228 139 -16 57 -8 85 66 239 72 152 88 222 60 265 -32 48 -116 22
-153 -48 -10 -19 -20 -72 -24 -130 -9 -115 -27 -153 -83 -181 -35 -17 -45 -18
-85 -7 -69 18 -118 57 -204 164 -94 117 -138 149 -212 155 -42 3 -64 -1 -107
-20 -181 -84 -505 -411 -668 -676 -25 -39 -48 -72 -51 -72 -4 0 -15 51 -25
113 -28 167 -26 525 4 698 12 70 32 161 46 203 54 170 158 268 300 283 70 7
122 -17 206 -94 74 -68 116 -93 158 -93 58 0 106 65 82 110 -6 12 -85 57 -183
106 -95 47 -182 95 -194 107 -47 43 -22 87 146 260 185 190 385 346 478 373
48 14 58 14 110 -1 52 -15 69 -28 174 -133 63 -65 159 -163 211 -220 l96 -103
75 61 c104 83 182 172 220 250 28 56 32 75 32 145 0 154 -84 264 -213 278 -38
5 -92 29 -92 42 0 4 36 61 65 102 26 37 86 50 150 32z m1863 -1196 c-10 -2
-26 -2 -35 0 -10 3 -2 5 17 5 19 0 27 -2 18 -5z m139 1 c-3 -3 -12 -4 -19 -1
-8 3 -5 6 6 6 11 1 17 -2 13 -5z m-219 -11 c-10 -2 -26 -2 -35 0 -10 3 -2 5
17 5 19 0 27 -2 18 -5z m-98 -14 c-25 -4 -58 -7 -75 -7 -25 1 -24 2 10 8 22 4
56 7 75 7 31 0 30 0 -10 -8z m-235 -30 c-71 -11 -137 -18 -145 -16 -19 4 193
35 240 35 19 0 -23 -9 -95 -19z m-177 -26 c-10 -2 -26 -2 -35 0 -10 3 -2 5 17
5 19 0 27 -2 18 -5z m-70 -10 c-10 -2 -26 -2 -35 0 -10 3 -2 5 17 5 19 0 27
-2 18 -5z m-70 -10 c-10 -2 -26 -2 -35 0 -10 3 -2 5 17 5 19 0 27 -2 18 -5z
m-93 -14 c-22 -4 -51 -8 -65 -7 -35 1 34 15 75 16 25 0 23 -2 -10 -9z m-102
-16 c-7 -2 -21 -2 -30 0 -10 3 -4 5 12 5 17 0 24 -2 18 -5z m-78 -13 c-16 -4
-38 -11 -47 -15 -10 -4 -18 -4 -18 -1 0 10 42 25 70 24 23 0 22 -1 -5 -8z
m3518 -724 c45 -17 74 -40 94 -79 53 -103 119 -1086 95 -1407 -12 -153 -29
-225 -75 -303 -34 -57 -52 -70 -212 -151 -248 -124 -456 -278 -655 -482 -230
-237 -335 -399 -533 -826 -74 -158 -154 -227 -265 -228 -61 0 -108 17 -138 51
-12 13 -38 74 -59 134 -130 392 -429 725 -830 925 -156 78 -271 118 -432 151
-92 19 -141 23 -333 23 l-225 1 -59 29 c-149 73 -240 228 -286 491 -80 451
-93 1029 -28 1148 28 51 64 66 160 66 179 2 979 66 1393 112 696 77 1430 191
2105 328 161 33 227 37 283 17z m-5157 -80 c28 -13 67 -38 87 -56 41 -36 147
-189 147 -212 0 -35 -83 -78 -151 -78 -22 0 -74 14 -116 30 -89 36 -128 38
-160 8 -68 -64 15 -164 163 -197 99 -22 169 -98 148 -159 -13 -38 -69 -72
-118 -72 -23 0 -75 9 -116 20 -41 11 -100 20 -131 20 -52 0 -57 -2 -63 -25
-10 -41 32 -103 91 -134 12 -6 57 -22 100 -36 84 -26 126 -59 138 -107 16 -65
-45 -148 -109 -148 -18 0 -69 18 -114 40 -101 50 -136 52 -151 8 -16 -45 -3
-95 33 -132 43 -42 48 -61 32 -100 -19 -45 -52 -66 -102 -66 -54 0 -92 14
-265 97 -158 76 -200 111 -220 185 -23 89 9 197 121 397 142 252 343 546 438
638 100 97 217 126 318 79z m5910 -2740 c90 -201 193 -459 279 -691 90 -245
205 -598 205 -630 0 -39 -46 -119 -89 -153 -20 -16 -61 -43 -91 -60 -56 -32
-996 -371 -1105 -399 -94 -24 -175 -20 -239 11 -85 42 -135 106 -232 299 -145
287 -284 494 -465 692 -114 125 -126 163 -93 275 20 68 92 141 190 192 110 57
110 57 117 -2 12 -96 83 -191 182 -242 95 -49 222 -61 363 -33 90 18 619 195
708 236 85 40 140 97 160 167 22 74 14 135 -36 302 -52 172 -63 245 -50 306
22 99 28 99 78 -6 24 -52 77 -171 118 -264z m-376 304 c29 -29 36 -51 86 -276
68 -310 61 -349 -69 -409 -83 -38 -358 -134 -489 -171 -266 -74 -441 -34 -520
120 -33 64 -23 150 26 220 99 144 568 441 806 510 105 31 134 32 160 6z
m-4093 -255 c28 -20 43 -74 34 -117 -5 -18 -24 -65 -45 -104 -46 -91 -48 -138
-6 -212 54 -93 104 -124 712 -435 146 -75 213 -97 292 -97 109 0 162 40 270
205 95 144 160 195 249 195 58 0 104 -32 136 -94 21 -41 26 -64 25 -125 0 -43
-8 -103 -18 -136 -37 -124 -385 -856 -444 -933 -14 -18 -46 -45 -71 -60 -65
-38 -170 -37 -346 6 -280 68 -919 223 -1080 261 -95 23 -197 55 -232 72 -112
54 -163 145 -148 261 16 117 191 585 351 937 104 226 142 297 186 337 60 56
96 67 135 39z m523 -60 c237 -16 607 -138 729 -240 71 -60 80 -130 26 -195
-19 -23 -59 -83 -89 -133 -84 -143 -130 -180 -225 -179 -48 0 -77 12 -270 107
-306 150 -436 223 -491 272 -121 108 -120 282 1 344 45 22 134 38 194 33 22
-2 78 -6 125 -9z m4541 -2692 c19 -93 16 -289 -5 -388 -10 -44 -36 -125 -58
-180 -105 -261 -107 -268 -116 -384 -13 -170 -32 -183 -264 -189 -269 -7 -509
27 -763 109 -302 96 -385 174 -385 359 0 121 37 472 53 512 8 18 24 42 36 52
21 19 23 19 134 -7 164 -38 282 -50 437 -44 221 10 393 50 595 139 161 72 208
87 266 88 l57 0 13 -67z m-3974 -53 c18 -10 41 -37 52 -59 25 -48 141 -643
141 -722 0 -113 -78 -207 -220 -265 -89 -36 -833 -254 -868 -254 -16 0 -41 9
-56 21 -25 20 -26 24 -26 119 0 127 -13 186 -61 285 -52 109 -104 164 -239
254 -126 83 -167 130 -195 224 -19 62 -30 216 -21 280 l7 47 222 0 c320 0 773
33 1037 74 128 20 189 19 227 -4z m4743 -339 c106 -27 265 -104 351 -169 77
-59 181 -169 203 -216 40 -84 3 -207 -81 -271 -58 -44 -119 -64 -229 -73 -111
-10 -917 13 -971 27 -90 25 -112 98 -70 241 89 306 191 427 402 474 98 22 282
16 395 -13z m-6349 -280 c96 -25 218 -85 292 -145 70 -57 142 -156 169 -233
52 -147 -13 -317 -142 -372 l-50 -21 -517 10 c-594 13 -627 17 -673 93 -26 42
-25 80 4 172 68 214 257 405 476 481 38 14 96 29 128 34 81 13 224 4 313 -19z
m4484 -537 c220 -73 311 -88 530 -88 146 0 232 5 370 24 193 26 324 28 925 19
298 -4 396 7 602 67 23 7 48 -44 48 -99 0 -95 -82 -195 -188 -228 -57 -17
-304 -27 -682 -28 -623 -1 -1111 33 -1610 114 -253 42 -329 68 -411 142 -70
64 -109 168 -90 240 l11 40 183 -79 c100 -44 241 -100 312 -124z m-2548 71
c12 -32 -30 -109 -91 -170 -99 -99 -230 -158 -584 -266 -303 -92 -656 -174
-952 -223 -282 -47 -437 -59 -720 -60 -250 0 -268 1 -324 22 -78 29 -119 62
-145 115 -25 52 -27 107 -4 154 16 35 17 35 62 29 25 -4 123 -14 216 -22 215
-20 701 -14 905 10 451 55 903 172 1280 332 197 83 229 93 293 94 43 0 59 -4
64 -15z"/>
<path d="M3808 10849 c-74 -38 -101 -111 -58 -157 22 -24 62 -30 59 -9 -1 6 8
33 20 60 14 30 21 62 19 86 l-3 39 -37 -19z"/>
<path d="M5150 6931 c-25 -4 -50 -10 -57 -14 -17 -11 -33 -73 -33 -128 0 -48
51 -372 75 -477 34 -147 115 -233 185 -197 68 35 91 114 121 426 l22 234 -21
47 c-25 57 -76 94 -151 108 -58 11 -71 11 -141 1z m172 -141 c10 -12 18 -30
18 -40 0 -26 -35 -53 -60 -45 -26 8 -60 61 -60 94 0 22 3 23 42 18 27 -4 49
-14 60 -27z"/>
<path d="M3918 6870 c-13 -8 -18 -24 -18 -53 0 -78 70 -627 84 -660 29 -69 93
-92 171 -63 81 32 119 95 131 221 6 69 -11 492 -21 517 -4 9 -20 21 -37 27
-45 16 -289 24 -310 11z"/>
<path d="M5370 5959 c-568 -30 -1089 -98 -1349 -175 l-83 -25 4 -102 c4 -121
28 -175 87 -203 39 -19 18 -21 291 36 195 40 395 64 835 100 443 36 503 44
564 71 89 39 131 97 131 179 0 43 -5 56 -28 80 -52 51 -117 57 -452 39z m354
-105 c20 -19 20 -28 1 -44 -18 -15 -64 -5 -72 15 -13 37 42 59 71 29z m-734
-51 c0 -13 -54 -63 -69 -63 -21 0 -51 30 -51 52 0 15 8 18 60 18 33 0 60 -3
60 -7z m-632 -62 c23 -6 23 -6 -9 -30 -18 -13 -39 -25 -48 -26 -9 -1 -38 -12
-65 -24 -46 -22 -51 -22 -81 -8 -44 21 -51 52 -16 66 66 27 167 37 219 22z"/>
<path d="M6629 4755 c-14 -8 -32 -29 -40 -47 -14 -33 -20 -151 -8 -162 3 -4
21 0 40 8 104 43 150 136 94 191 -27 28 -48 31 -86 10z"/>
<path d="M6204 4609 c-15 -17 -19 -36 -19 -93 0 -64 3 -77 28 -109 15 -20 34
-37 40 -37 7 0 29 25 50 56 28 43 37 67 37 100 0 85 -86 138 -136 83z"/>
<path d="M3215 4591 c-53 -32 -68 -66 -73 -165 l-5 -88 24 7 c43 13 96 53 119
90 24 40 36 108 26 149 -8 32 -46 35 -91 7z"/>
<path d="M3621 4444 c-48 -40 -81 -180 -49 -212 17 -17 59 -15 85 3 29 20 53
102 53 177 0 57 0 58 -29 58 -17 0 -42 -11 -60 -26z"/>
<path d="M9531 12340 c-30 -11 -104 -44 -165 -74 -61 -29 -138 -66 -171 -81
-83 -39 -200 -157 -243 -246 -46 -95 -65 -187 -59 -287 l5 -83 -43 73 c-106
181 -226 257 -353 225 -70 -19 -117 -59 -152 -131 -39 -80 -55 -175 -42 -260
13 -78 45 -162 133 -337 92 -185 113 -258 113 -384 0 -120 -24 -207 -90 -335
-60 -116 -127 -203 -268 -347 l-119 -123 19 -22 c10 -13 20 -25 21 -27 1 -2
27 19 58 46 57 51 172 114 283 153 l63 23 54 -38 c30 -20 131 -110 224 -200
243 -234 335 -294 476 -314 183 -26 369 49 430 174 24 48 27 63 22 117 -4 35
-9 98 -13 141 l-7 78 180 177 c233 229 356 369 535 607 257 344 350 537 335
699 -14 146 -116 274 -232 291 l-42 7 9 41 c27 117 -34 266 -138 338 -121 83
-296 68 -412 -36 l-50 -45 -6 39 c-7 48 -44 93 -103 128 -63 36 -174 42 -252
13z m148 -116 c43 -17 71 -51 71 -85 0 -12 -12 -54 -26 -93 -14 -39 -34 -111
-45 -161 -21 -101 -37 -325 -23 -325 5 1 40 48 77 106 94 142 234 329 293 387
115 115 237 127 310 32 40 -53 34 -78 -86 -310 -93 -180 -110 -221 -110 -259
0 -56 29 -93 59 -77 10 6 57 53 105 105 95 103 134 126 214 126 102 -1 139
-89 93 -223 -86 -250 -269 -514 -551 -797 -184 -184 -477 -443 -542 -478 -86
-47 -184 -11 -285 105 -174 200 -261 267 -417 319 -90 30 -61 -32 -233 514
-133 425 -148 493 -119 548 19 37 73 57 114 41 33 -13 42 -26 42 -65 0 -45 46
-129 92 -168 22 -19 85 -58 140 -87 162 -85 267 -199 306 -331 19 -66 34 -72
76 -33 31 29 46 64 46 111 0 45 -15 80 -83 193 -89 146 -127 274 -127 422 0
88 25 216 49 249 25 34 67 34 93 -1 16 -21 22 -53 29 -150 11 -146 37 -250 87
-351 31 -60 42 -74 64 -76 32 -4 68 31 68 65 0 13 -9 56 -21 96 -72 253 3 591
145 653 40 17 48 17 95 -2z"/>
<path d="M9531 10942 c-46 -50 -271 -489 -271 -530 0 -16 9 -41 21 -56 27 -34
33 -29 109 84 114 170 240 423 240 482 0 26 -27 58 -50 58 -7 0 -29 -17 -49
-38z"/>
</g>
</svg>
